<?xml version="1.0" standalone="no"?>
<!DOCTYPE svg PUBLIC "-//W3C//DTD SVG 20010904//EN"
 "http://www.w3.org/TR/2001/REC-SVG-20010904/DTD/svg10.dtd">
<svg version="1.0" xmlns="http://www.w3.org/2000/svg"
 width="1072.000000pt" height="1072.000000pt" viewBox="0 0 1072.000000 1072.000000"
 preserveAspectRatio="xMidYMid meet">
<metadata>
Created by potrace 1.14, written by Peter Selinger 2001-2017
</metadata>
<g transform="translate(0.000000,1072.000000) scale(0.100000,-0.100000)"
fill="#000000" stroke="none">
<path d="M5326 9613 c1 -610 2 -1110 3 -1113 1 -3 440 -5 977 -5 l975 0 -4 23
c-2 12 -1 25 4 28 5 2 4 16 -1 29 -6 17 -6 25 1 25 6 0 7 6 1 17 -6 9 -6 29
-2 45 5 16 5 28 0 28 -6 0 -6 10 0 25 5 13 6 26 2 29 -9 5 -6 81 3 96 3 6 2
10 -3 10 -5 0 -6 17 -2 40 4 22 4 40 -1 40 -5 0 -4 11 1 25 5 13 6 26 2 29 -8
5 -6 85 2 93 3 3 1 15 -4 27 -4 13 -4 29 1 39 7 11 6 17 0 17 -7 0 -7 8 -2 23
5 13 5 30 1 37 -5 8 -4 22 1 32 7 13 6 18 -2 18 -9 0 -9 3 0 14 7 8 8 17 4 19
-5 3 -7 25 -5 49 6 81 6 103 0 119 -3 9 -2 22 2 29 5 7 4 24 -1 37 -5 15 -5
23 2 23 6 0 7 6 1 17 -6 9 -6 29 -2 45 5 16 5 28 0 28 -6 0 -6 10 0 25 5 13 6
27 1 29 -4 3 -5 26 -1 51 4 25 4 47 1 50 -8 4 -7 53 2 61 3 3 2 16 -3 28 -4
13 -5 29 0 36 5 7 5 23 0 35 -4 11 -4 28 1 37 6 10 6 19 0 23 -6 3 -7 15 -3
28 8 20 8 35 2 55 -2 7 -1 56 3 135 1 26 0 47 -3 47 -3 0 -5 14 -5 30 0 17 3
30 7 30 4 0 3 11 -2 25 -6 15 -6 26 0 30 6 4 7 13 1 24 -5 9 -6 23 -1 31 4 7
4 24 -1 37 -5 15 -5 23 2 23 6 0 7 6 1 17 -6 9 -6 29 -2 45 5 16 5 28 0 28 -6
0 -6 10 0 25 5 13 6 27 1 29 -5 3 -6 17 -3 31 l4 25 -978 0 -979 0 1 -1107z"/>
<path d="M2379 8090 c-3 -15 -4 -1917 -1 -1927 3 -10 208 -13 978 -13 l974 0
-2 972 -3 971 -972 1 c-535 1 -973 -1 -974 -4z"/>
<path d="M5329 6672 c-1 -9 -1 -334 0 -722 5 -1695 4 -2559 -2 -2615 -11 -103
-17 -137 -42 -245 -14 -58 -26 -111 -27 -117 -1 -7 -5 -13 -10 -13 -4 0 -7 -3
-6 -7 3 -14 -13 -72 -32 -110 -10 -21 -16 -41 -13 -45 2 -5 -1 -8 -6 -8 -6 0
-11 -5 -11 -12 0 -11 -56 -129 -83 -173 -6 -11 -25 -42 -41 -70 -17 -27 -33
-52 -36 -55 -3 -3 -17 -23 -32 -45 -26 -37 -79 -94 -153 -162 -74 -69 -216
-144 -345 -183 -41 -13 -82 -25 -90 -28 -8 -2 -28 -6 -44 -8 -16 -2 -41 -6
-55 -9 -101 -20 -387 -27 -561 -13 -103 9 -236 29 -335 52 -11 2 -33 7 -50 11
-33 7 -121 33 -145 42 -8 3 -22 7 -30 9 -29 6 -202 79 -285 121 -100 50 -250
137 -265 153 -3 3 -17 11 -32 19 -15 8 -37 22 -47 33 -11 10 -23 18 -26 18 -4
0 -13 6 -20 13 -30 26 -44 37 -50 37 -3 0 -40 27 -83 61 -42 33 -84 66 -92 72
-8 7 -30 24 -48 40 -34 28 -52 34 -52 18 0 -8 -19 -32 -85 -107 -11 -12 -27
-32 -35 -44 -8 -13 -22 -30 -31 -39 -8 -9 -44 -52 -80 -96 -35 -44 -66 -82
-69 -85 -5 -4 -169 -205 -195 -238 -5 -7 -17 -21 -25 -30 -9 -9 -33 -39 -55
-67 -38 -48 -52 -65 -92 -111 -10 -12 -29 -36 -43 -54 -14 -18 -30 -38 -35
-44 -6 -6 -30 -36 -55 -66 -25 -30 -47 -57 -50 -60 -3 -3 -28 -33 -54 -67 -27
-35 -53 -63 -57 -63 -5 0 -9 -4 -9 -10 0 -9 -16 -30 -55 -74 -5 -6 -39 -47
-75 -91 -36 -44 -75 -91 -87 -105 -23 -25 -31 -60 -13 -60 5 0 17 -8 27 -18
80 -81 448 -346 679 -489 183 -114 604 -322 637 -315 4 1 7 -2 7 -6 0 -5 6 -9
13 -9 19 -1 111 -37 118 -46 3 -5 8 -8 10 -6 2 1 13 0 24 -3 11 -2 23 -6 27
-6 5 -1 25 -9 45 -17 37 -14 166 -53 270 -80 53 -15 64 -17 148 -35 80 -18 99
-22 120 -25 11 -2 31 -6 44 -9 12 -3 42 -8 65 -10 22 -3 52 -8 66 -11 14 -3
45 -8 70 -10 25 -3 59 -7 75 -9 80 -13 282 -27 440 -30 67 -1 126 -5 131 -9 6
-3 14 -3 18 0 4 4 37 8 74 9 94 2 302 13 332 18 14 2 48 7 75 11 96 13 120 16
175 26 30 5 66 12 80 15 14 3 39 7 55 10 17 3 37 8 45 11 8 3 24 7 35 9 40 7
50 10 60 16 6 3 26 9 45 13 19 4 40 10 45 13 6 4 19 7 30 8 17 2 157 50 205
71 8 3 17 7 20 8 3 1 18 7 33 13 16 7 30 12 32 12 12 0 260 125 263 132 2 4
12 8 23 8 10 0 19 4 19 9 0 5 8 11 18 15 24 8 185 108 202 126 3 3 18 14 34
24 102 65 379 317 496 451 40 45 115 139 145 181 11 15 29 39 41 53 25 32 103
153 130 201 10 19 22 37 25 40 3 3 30 50 59 105 30 55 58 103 64 107 6 4 8 8
4 8 -4 0 8 31 27 69 19 38 35 72 35 75 0 3 13 33 29 68 64 137 168 441 188
547 2 14 7 29 10 35 4 6 8 20 9 31 1 12 7 40 14 64 6 23 13 54 15 69 2 15 6
38 9 52 32 165 53 339 61 512 2 43 6 82 10 88 3 5 3 10 -2 10 -4 0 -8 14 -8
30 0 17 4 30 8 30 4 0 4 7 -1 17 -6 9 -6 29 -2 45 5 16 5 28 0 28 -6 0 -6 10
0 25 5 13 6 26 2 29 -9 5 -6 81 3 96 3 6 2 10 -3 10 -5 0 -6 17 -2 40 4 22 4
40 -1 40 -5 0 -4 11 1 25 5 13 6 26 2 29 -8 5 -6 85 2 93 3 3 1 15 -4 27 -4
13 -4 29 1 39 7 11 6 17 0 17 -7 0 -7 8 -2 23 5 13 5 30 1 37 -5 8 -4 22 1 32
7 13 6 18 -2 18 -9 0 -9 3 0 14 7 8 8 17 4 19 -5 3 -7 25 -5 49 6 81 6 103 0
119 -3 9 -2 22 2 29 5 7 4 24 -1 37 -5 15 -5 23 2 23 6 0 7 6 1 17 -6 9 -6 29
-2 45 5 16 5 28 0 28 -6 0 -6 10 0 25 5 13 6 27 1 29 -4 3 -5 26 -1 51 4 25 4
47 1 50 -8 4 -7 53 2 61 3 3 2 16 -3 28 -4 13 -5 29 0 36 5 7 5 23 0 35 -4 11
-4 28 1 37 6 10 6 19 0 23 -6 3 -7 15 -3 28 8 20 8 35 2 55 -2 7 -1 56 3 135
1 26 0 47 -3 47 -3 0 -5 14 -5 30 0 17 3 30 7 30 4 0 3 11 -2 25 -6 15 -6 26
0 30 6 4 7 13 1 24 -5 9 -6 23 -1 31 4 7 4 24 -1 37 -5 15 -5 23 2 23 6 0 7 6
1 17 -6 9 -6 29 -2 45 5 16 5 28 0 28 -6 0 -6 10 0 25 5 13 5 27 1 30 -5 3 -5
20 -1 39 4 18 4 40 -1 48 -4 7 -4 20 1 28 4 7 4 24 -1 37 -5 15 -5 23 2 23 6
0 7 6 1 17 -6 9 -6 29 -2 45 5 16 5 28 0 28 -6 0 -6 10 0 25 5 13 6 27 1 29
-4 3 -5 26 -1 51 4 25 4 47 1 50 -8 4 -7 53 2 61 3 3 2 16 -3 28 -4 13 -5 29
0 36 5 7 5 23 0 35 -4 11 -4 28 1 37 6 10 6 19 0 23 -6 3 -7 15 -3 28 8 20 8
35 2 55 -2 7 -1 56 3 135 1 26 0 47 -3 47 -3 0 -5 14 -5 30 0 17 3 30 7 30 4
0 3 11 -2 25 -6 15 -6 26 0 30 6 4 7 13 1 24 -6 10 -6 23 -1 31 5 8 4 22 -2
34 -6 12 -11 23 -10 26 1 3 -434 6 -968 7 -902 1 -970 0 -971 -15z"/>
<path d="M7809 1606 c-2 -2 -30 -7 -62 -10 -33 -4 -71 -12 -85 -18 -15 -6 -29
-12 -32 -12 -3 -1 -22 -11 -43 -23 -20 -12 -39 -21 -41 -20 -4 3 -116 -116
-116 -125 0 -3 -6 -13 -14 -20 -35 -36 -80 -160 -100 -278 -15 -93 -10 -279 8
-309 3 -4 7 -20 10 -35 29 -161 170 -327 316 -374 93 -30 220 -31 296 -2 12 5
25 6 28 3 3 -4 6 0 6 7 0 7 3 10 7 7 5 -6 56 20 91 48 75 57 117 116 183 256
4 9 13 43 18 75 6 33 13 70 16 84 7 34 7 173 1 240 -15 148 -85 294 -186 388
-30 28 -117 82 -142 88 -5 1 -9 2 -10 4 -4 3 -38 9 -88 16 -25 3 -48 8 -51 10
-3 2 -8 2 -10 0z m54 -191 c20 -3 37 -10 37 -15 0 -6 6 -10 14 -10 22 0 83
-74 110 -134 37 -80 48 -137 49 -251 1 -90 -12 -215 -22 -215 -4 0 -8 -10 -8
-22 -3 -35 -52 -124 -87 -159 -101 -100 -258 -78 -344 47 -27 40 -58 125 -70
191 -13 75 -7 238 12 323 15 69 66 158 113 200 25 22 51 40 57 41 23 1 60 10
65 14 2 3 12 3 20 1 9 -2 33 -7 54 -11z"/>
<path d="M8479 1585 c-6 0 -4 -1192 2 -1200 7 -10 194 -14 204 -4 7 7 7 1190
0 1198 -5 4 -63 6 -206 6z"/>
<path d="M8932 1575 c-4 -5 -7 -275 -7 -598 0 -515 2 -590 15 -596 13 -6 36
-6 151 -2 20 1 28 7 31 25 3 14 2 30 -2 36 -4 7 -4 26 0 44 3 17 3 43 -1 58
-4 16 -4 28 -1 28 4 0 7 14 7 30 0 17 -3 30 -7 30 -4 0 -3 11 2 25 6 15 6 27
0 30 -6 3 -6 15 0 30 5 13 5 27 1 30 -5 3 -5 20 -1 39 4 19 4 40 -1 47 -4 7
-4 20 1 30 5 9 6 19 3 23 -10 9 -10 56 0 56 4 0 5 5 1 12 -4 6 -9 84 -10 172
-3 170 -4 168 39 66 41 -98 85 -192 166 -350 100 -197 232 -454 237 -459 4 -5
186 -8 207 -3 16 4 17 41 17 606 l0 601 -92 -1 c-51 -1 -95 -3 -98 -4 -3 -1
-9 -2 -13 -1 -5 1 -6 -3 -2 -8 3 -6 8 -176 10 -378 2 -203 6 -392 9 -421 3
-28 3 -52 0 -52 -3 0 -12 17 -20 38 -23 55 -43 99 -75 170 -16 35 -29 67 -29
72 0 6 -5 10 -12 10 -6 0 -9 3 -6 6 3 3 -18 51 -48 107 -92 175 -104 201 -104
213 0 7 -4 14 -9 16 -5 2 -34 54 -65 116 -32 61 -63 112 -69 113 -66 6 -220 2
-225 -6z"/>
</g>
</svg>
