<svg xmlns="http://www.w3.org/2000/svg" version="1.1" xmlns:xlink="http://www.w3.org/1999/xlink" xmlns:svgjs="http://svgjs.com/svgjs" width="512" height="512" x="0" y="0" viewBox="0 0 6.35 6.35" style="enable-background:new 0 0 512 512" xml:space="preserve"><g><path d="M3.173.262a.265.265 0 0 0-.261.27L2.91 4.498a.265.265 0 1 0 .529 0L3.441.532a.265.265 0 0 0-.268-.27zM1.851 4.229a.265.265 0 0 0-.183.455L2.99 6.006a.265.265 0 0 0 .375 0l1.322-1.322a.265.265 0 0 0-.375-.375L3.178 5.446 2.04 4.309a.265.265 0 0 0-.19-.08z" fill="#29abe2" data-original="#000000" opacity="1"></path></g></svg>